<svg enable-background="new 0 0 24 24" height="512" viewBox="0 0 24 24" width="512" xmlns="http://www.w3.org/2000/svg"><circle cx="12" cy="12" fill="#2196f3" r="12"/><path d="m12 24c-6.617 0-12-5.383-12-12s5.383-12 12-12 12 5.383 12 12-5.383 12-12 12zm0-22.5c-5.79 0-10.5 4.71-10.5 10.5s4.71 10.5 10.5 10.5 10.5-4.71 10.5-10.5-4.71-10.5-10.5-10.5z"/><path d="m12 19c-.414 0-.75-.336-.75-.75v-12.5c0-.414.336-.75.75-.75s.75.336.75.75v12.5c0 .414-.336.75-.75.75z"/><path d="m16 10.5c-.192 0-.384-.073-.53-.22l-3.47-3.469-3.47 3.47c-.293.293-.768.293-1.061 0s-.293-.768 0-1.061l4-4c.293-.293.768-.293 1.061 0l4 4c.293.293.293.768 0 1.061-.146.146-.338.219-.53.219z"/></svg>